# xmcd
#
# Track frame offsets:
#	150
#	56670
#	77585
#	121351
#	144341
#	195041
#	228208
#	273768
# Disc length: 4298 seconds
# Revision: 1
# Processed by: cddbd v1.5.1PL0 Copyright (c) Steve Scherf et al.
#
# Submitted via: libkcddb 0.21
#
DISCID=5a10c808
DTITLE=Blues Summit - Live - Torpedoloods - Hoek v. Holland
DYEAR=2002
DGENRE=Blues
TTITLE0=Skitrow
TTITLE1=Midnight Cafe
TTITLE2=Chiefs
TTITLE3=My Baby
TTITLE4=Black Night
TTITLE5=Hounddog
TTITLE6=I Am Raedy
TTITLE7=Wang Dang Doodle
EXTD=
EXTT0=
EXTT1=
EXTT2=
EXTT3=
EXTT4=
EXTT5=
EXTT6=
EXTT7=
PLAYORDER=
